<?xml version="1.0" encoding="utf-8"?>
<!-- Generator: Adobe Illustrator 17.1.0, SVG Export Plug-In . SVG Version: 6.00 Build 0)  -->
<!DOCTYPE svg PUBLIC "-//W3C//DTD SVG 1.1//EN" "http://www.w3.org/Graphics/SVG/1.1/DTD/svg11.dtd">
<svg version="1.1" id="Layer_1" xmlns="http://www.w3.org/2000/svg" xmlns:xlink="http://www.w3.org/1999/xlink" x="0px" y="0px"
	 width="50px" height="50px" viewBox="0 0 50 50" enable-background="new 0 0 50 50" xml:space="preserve">
<path fill="#A91E5D" d="M42.5,17.9v-3.1H40v-5h-7.5v-5h-15v5H10v5H7.5v3.1h-5v6.9h5v5H10v5h4.9v5h-2.5v5h25v-5h-2.5v-5H40v-5h2.5v-5
	h5v-6.9H42.5z M37.6,23.7H34v5h-2.2v2.5H18.6v-2.5h-2.2v-5h-3.9v-5h3.9v-2.5h2.2v-2.5h13.2v2.5H34v2.5h3.5V23.7z"/>
</svg>
